<?xml version="1.0" standalone="no"?><!DOCTYPE svg PUBLIC "-//W3C//DTD SVG 1.1//EN" "http://www.w3.org/Graphics/SVG/1.1/DTD/svg11.dtd"><svg t="1763356284094" class="icon" viewBox="0 0 1024 1024" version="1.1" xmlns="http://www.w3.org/2000/svg" p-id="5346" xmlns:xlink="http://www.w3.org/1999/xlink" width="256" height="256"><path d="M830.464 1005.568H192c-97.28 0-176.64-79.36-176.64-176.64V190.464c0-97.28 79.36-176.64 176.64-176.64h638.464c97.28 0 176.64 79.36 176.64 176.64v638.464c0.512 97.28-79.36 176.64-176.64 176.64z" fill="#59B64C" p-id="5347"></path><path d="M425.984 603.136c-43.008 26.112-49.664-14.336-49.664-14.336L322.56 452.096c-20.992-65.024 17.92-29.184 17.92-29.184s33.28 27.136 58.368 44.032c25.088 16.384 53.76 4.608 53.76 4.608l352.768-176.128c-65.024-87.552-172.544-144.896-294.4-144.896C312.32 150.528 151.552 303.104 151.552 491.52c0 108.544 53.248 204.8 136.192 267.264l-14.848 93.184s-7.168 27.136 17.92 14.336c17.408-8.704 61.44-39.424 87.552-58.368 42.496 15.872 87.552 24.064 133.12 24.064 198.656 0 359.936-152.576 359.936-340.992 0-52.736-12.8-104.96-37.376-151.552-113.152 73.216-374.272 243.2-408.064 263.68z" fill="#FFFFFF" p-id="5348"></path></svg>